<svg width="24" height="24" viewBox="0 0 24 24" fill="none" xmlns="http://www.w3.org/2000/svg">
<path d="M16.9687 5.11642V3.3047C16.9687 3.14767 16.7883 3.06095 16.6664 3.15704L6.10075 11.4094C6.01098 11.4792 5.93835 11.5686 5.88838 11.6707C5.83841 11.7729 5.81244 11.8851 5.81244 11.9988C5.81244 12.1126 5.83841 12.2248 5.88838 12.3269C5.93835 12.4291 6.01098 12.5185 6.10075 12.5883L16.6664 20.8406C16.7906 20.9367 16.9687 20.85 16.9687 20.693V18.8813C16.9687 18.7664 16.9148 18.6563 16.8258 18.586L8.38825 12L16.8258 5.41173C16.9148 5.34142 16.9687 5.23126 16.9687 5.11642Z" fill="black"/>
</svg>
